<?xml version="1.0" encoding="UTF-8" standalone="no"?>
<!-- Created with Inkscape (http://www.inkscape.org/) -->
<svg
   xmlns:dc="http://purl.org/dc/elements/1.1/"
   xmlns:cc="http://web.resource.org/cc/"
   xmlns:rdf="http://www.w3.org/1999/02/22-rdf-syntax-ns#"
   xmlns:svg="http://www.w3.org/2000/svg"
   xmlns="http://www.w3.org/2000/svg"
   xmlns:sodipodi="http://sodipodi.sourceforge.net/DTD/sodipodi-0.dtd"
   xmlns:inkscape="http://www.inkscape.org/namespaces/inkscape"
   width="744.09448"
   height="524.40942"
   id="svg2"
   sodipodi:version="0.32"
   inkscape:version="0.44+devel"
   version="1.0"
   sodipodi:docbase="C:\Documents and Settings\James\                  "
   sodipodi:docname="thumbtack note-important!.svg"
   inkscape:output_extension="org.inkscape.output.svg.inkscape"
   sodipodi:modified="true">
  <sodipodi:namedview
     id="base"
     pagecolor="#ffffff"
     bordercolor="#666666"
     borderopacity="1.0"
     gridtolerance="10000"
     guidetolerance="10"
     objecttolerance="10"
     inkscape:pageopacity="0.0"
     inkscape:pageshadow="2"
     inkscape:zoom="0.82633548"
     inkscape:cx="384.61875"
     inkscape:cy="307.27353"
     inkscape:document-units="px"
     inkscape:current-layer="layer1"
     width="744.09449px"
     height="524.40945px"
     inkscape:window-width="742"
     inkscape:window-height="602"
     inkscape:window-x="220"
     inkscape:window-y="81" />
  <defs
     id="defs4">
    <filter
       inkscape:collect="always"
       id="filter4153">
      <feGaussianBlur
         inkscape:collect="always"
         id="feGaussianBlur4155"
         stdDeviation="81.084917" />
    </filter>
  </defs>
  <metadata
     id="metadata7">
    <rdf:RDF>
      <cc:Work
         rdf:about="">
        <dc:format>image/svg+xml</dc:format>
        <dc:type
           rdf:resource="http://purl.org/dc/dcmitype/StillImage" />
      </cc:Work>
    </rdf:RDF>
  </metadata>
  <g
     inkscape:groupmode="layer"
     id="layer1"
     inkscape:label="Layer 1">
    <rect
       id="rect3152"
       x="-2512.4524"
       y="56.33197"
       width="5602.9243"
       height="3419.2888"
       transform="matrix(0.1104659,-2.3734892e-2,2.2163258e-2,0.1031513,300.37335,92.34573)"
       inkscape:transform-center-y="146.51662"
       inkscape:transform-center-x="-31.480785"
       style="opacity:1;fill:#b7c8c4;fill-opacity:1;fill-rule:nonzero;stroke:none;stroke-width:0.1;stroke-linecap:butt;stroke-miterlimit:4;stroke-dasharray:none;stroke-dashoffset:0;stroke-opacity:1;filter:url(#filter4153)" />
    <rect
       id="rect3162"
       x="-2512.4524"
       y="56.33197"
       width="5602.9243"
       height="3419.2888"
       transform="matrix(0.1104659,-2.3734892e-2,2.2163258e-2,0.1031513,308.46782,74.820675)"
       inkscape:transform-center-y="146.51661"
       inkscape:transform-center-x="-31.480785"
       style="opacity:1;fill:#e680ff;fill-opacity:1;fill-rule:nonzero;stroke:none;stroke-width:0.1;stroke-linecap:butt;stroke-miterlimit:4;stroke-dasharray:none;stroke-dashoffset:0;stroke-opacity:1" />
    <path
       id="path4171"
       sodipodi:cx="404.38675"
       sodipodi:cy="393.1416"
       transform="matrix(0.4358179,-7.9648168e-2,7.5102582e-2,0.4109426,131.93486,-1.6911708)"
       d="M 527.8214 393.1416 A 123.43465 123.43465 0 1 1  280.9521,393.1416 A 123.43465 123.43465 0 1 1  527.8214 393.1416 z"
       sodipodi:type="arc"
       style="fill:#ca3eec;fill-opacity:1;fill-rule:nonzero;stroke:none;stroke-width:0.0804934;stroke-linecap:butt;stroke-miterlimit:4;stroke-dasharray:none;stroke-dashoffset:0;stroke-opacity:1"
       sodipodi:ry="123.43465"
       sodipodi:rx="123.43465" />
    <g
       id="g6179">
      <path
         id="path2164"
         sodipodi:cx="404.38675"
         sodipodi:cy="393.1416"
         transform="matrix(0.4358179,-7.9648168e-2,7.5102582e-2,0.4109426,140.95141,-12.41491)"
         d="M 527.8214 393.1416 A 123.43465 123.43465 0 1 1  280.9521,393.1416 A 123.43465 123.43465 0 1 1  527.8214 393.1416 z"
         sodipodi:type="arc"
         style="fill:#bf0000;fill-opacity:1;fill-rule:nonzero;stroke:none;stroke-width:0.0804934;stroke-linecap:butt;stroke-miterlimit:4;stroke-dasharray:none;stroke-dashoffset:0;stroke-opacity:1"
         sodipodi:ry="123.43465"
         sodipodi:rx="123.43465" />
      <path
         transform="matrix(0.3462881,0,0,0.3462881,227.09453,-36.050605)"
         id="path2179"
         style="fill:#d60000;fill-opacity:1;fill-rule:nonzero;stroke:none;stroke-width:0.1;stroke-linecap:butt;stroke-miterlimit:4;stroke-dasharray:none;stroke-dashoffset:0;stroke-opacity:1"
         d="M 509.34375,405.875 L 357.25,433.6875 L 325.40625,577.5625 C 343.07805,580.2551 361.52957,580.29626 380.25,576.875 C 464.62863,561.45433 521.61441,485.34309 509.34375,405.875 z " />
      <path
         transform="matrix(0.3462881,0,0,0.3462881,227.09453,-36.050605)"
         id="path2162"
         style="fill:#e60000;fill-opacity:1;fill-rule:nonzero;stroke:none;stroke-width:0.1;stroke-linecap:butt;stroke-miterlimit:4;stroke-dasharray:none;stroke-dashoffset:0;stroke-opacity:1"
         d="M 358.5625,281.15625 C 348.09597,281.05155 337.43773,281.94729 326.71875,283.90625 C 240.96686,299.57789 183.37901,377.92385 198.15625,458.78125 C 209.70749,521.98673 262.12957,567.92122 325.40625,577.5625 L 357.25,433.6875 L 509.34375,405.875 C 509.14405,404.58166 509.0804,403.29487 508.84375,402 C 495.91366,331.24978 431.82821,281.88918 358.5625,281.15625 z " />
      <path
         transform="matrix(0.3462881,0,0,0.3462881,227.09453,-36.050605)"
         id="path2166"
         style="fill:#990000;fill-opacity:1;fill-rule:nonzero;stroke:none;stroke-width:0.09999999;stroke-linecap:butt;stroke-miterlimit:4;stroke-dashoffset:0;stroke-opacity:1"
         d="M 294.2107,361.9442 L 282.79367,370.38482 L 261.73414,386.13346 C 253.13706,404.40842 254.3359,423.7989 259.7176,444.39774 C 273.6797,497.83861 313.42636,523.96124 369.50989,517.58957 C 398.21848,514.32797 424.51832,504.67345 440.64696,484.15958 L 469.89512,447.48298 L 294.2107,361.9442 z "
         sodipodi:nodetypes="cccssccc" />
      <path
         id="path2160"
         sodipodi:cx="404.38675"
         sodipodi:cy="393.1416"
         transform="matrix(0.3406461,-6.2255224e-2,5.8701547e-2,0.3212014,200.07922,-8.6126804)"
         d="M 527.8214 393.1416 A 123.43465 123.43465 0 1 1  280.9521,393.1416 A 123.43465 123.43465 0 1 1  527.8214 393.1416 z"
         sodipodi:type="arc"
         style="fill:#bf0000;fill-opacity:1;fill-rule:nonzero;stroke:none;stroke-width:0.10298239;stroke-linecap:butt;stroke-miterlimit:4;stroke-dasharray:none;stroke-dashoffset:0;stroke-opacity:1"
         sodipodi:ry="123.43465"
         sodipodi:rx="123.43465" />
      <path
         id="path2174"
         sodipodi:cx="404.38675"
         sodipodi:cy="393.1416"
         transform="matrix(0.3406461,-6.2255224e-2,5.8701547e-2,0.3212014,203.09445,-11.369511)"
         d="M 527.8214 393.1416 A 123.43465 123.43465 0 1 1  280.9521,393.1416 A 123.43465 123.43465 0 1 1  527.8214 393.1416 z"
         sodipodi:type="arc"
         style="fill:#e60000;fill-opacity:1;fill-rule:nonzero;stroke:none;stroke-width:0.10298239;stroke-linecap:butt;stroke-miterlimit:4;stroke-dasharray:none;stroke-dashoffset:0;stroke-opacity:1"
         sodipodi:ry="123.43465"
         sodipodi:rx="123.43465" />
    </g>
    <path
       style="opacity:1;fill:#002b11;fill-opacity:1;fill-rule:nonzero;stroke:none;stroke-width:0.1;stroke-linecap:butt;stroke-miterlimit:4;stroke-dasharray:none;stroke-dashoffset:0;stroke-opacity:1"
       d="M 567.4375 125.65625 C 563.6257 125.96018 559.65953 129.69518 562.25 134.46875 C 564.84715 139.25465 566.94843 144.27473 568.75 149.4375 C 565.73404 150.67827 562.68992 151.8724 559.625 152.96875 C 548.84554 156.82468 558.33612 177.73108 567.25 169.96875 C 569.22794 168.24634 571.324 166.7323 573.46875 165.34375 C 574.65252 169.8682 575.7538 174.40423 576.90625 178.90625 C 579.92852 193.20808 584.14119 207.16829 588.5 221.0625 C 591.56969 230.39394 593.62893 240.01511 595.9375 249.5625 C 598.42257 259.41602 602.96706 264.11146 611.75 264.8125 C 619.61975 261.01915 624.26547 252.25997 630.4375 245.78125 C 636.71097 239.33535 628.792 247.22439 634.4375 242.1875 C 643.02913 234.52211 627.28532 218.92113 622.125 230 C 620.86972 232.69501 620.87944 232.92665 621.125 232.59375 C 621.36533 232.17611 621.69396 231.61709 619.78125 235.0625 C 617.30551 239.40569 613.82536 245.64761 610.09375 246.34375 C 609.74477 245.57701 609.62342 244.61309 609.0625 244.03125 C 604.61378 235.38548 602.07868 225.68785 597.65625 217 C 592.01185 204.01657 587.06835 190.67757 582.53125 177.1875 C 581.10108 172.2823 579.75368 167.33983 578.5 162.375 C 583.20248 159.84714 588.12022 157.74848 593 155.65625 C 597.99409 153.32157 603.43202 152.73862 608.65625 151.46875 C 622.87221 148.01322 607.78329 118.31887 597.90625 130.25 C 594.60634 134.2362 591.36269 138.31807 586.9375 140.75 C 583.04264 142.91522 579.06115 144.88497 575.03125 146.71875 C 574.06255 141.39018 573.31122 136.03756 572.875 130.625 C 572.57202 126.86585 570.04557 125.4483 567.4375 125.65625 z M 391.78125 161.53125 C 389.04233 161.3298 386.49189 164.29465 387.4375 169.03125 C 388.93835 176.54861 390.87366 183.92059 393.3125 191.15625 C 393.66455 192.08013 393.99479 193.0046 394.3125 193.9375 C 389.76035 194.98982 385.01901 195.39674 380.1875 195.34375 C 373.59874 195.27147 377.2923 209.70492 382.78125 205.84375 C 386.93846 202.91941 391.12349 200.0305 395.4375 197.5625 C 398.52366 207.97089 399.98496 218.82374 402.5625 229.40625 C 405.50971 240.91972 408.48711 252.31386 409.3125 264.1875 C 409.92501 271.17464 411.06484 278.11357 412.75 284.90625 C 414.61261 290.37903 416.76383 295.73211 418.875 301.09375 C 427.07395 312.64273 436.83518 307.82135 443.375 298.5625 C 446.31015 292.59932 449.29214 287.08722 454.375 283.4375 C 463.00144 277.24336 447.06834 261.20182 442.9375 271.96875 C 440.73122 277.71933 437.47531 282.30834 432.75 285.5625 C 432.4836 285.69883 432.34278 285.76326 432.125 285.875 C 430.97466 283.6767 429.90064 281.36549 429.21875 278.90625 C 427.01801 272.96827 424.81217 267.01072 422.375 261.1875 C 418.07378 249.95562 416.10703 237.95581 412.375 226.5 C 409.19713 215.6017 404.83361 205.03821 402.96875 193.8125 C 407.5348 191.91313 412.31491 190.64605 417.4375 190.40625 C 418.72174 190.59943 419.99708 190.80682 421.28125 191 C 428.55172 192.09368 421.90949 173.65078 417.25 179.8125 C 416.42111 180.90857 415.57889 181.99768 414.75 183.09375 C 411.01111 186.62944 406.92468 189.27058 402.5625 191.1875 C 402.46248 190.40501 402.35335 189.6026 402.28125 188.8125 C 401.08336 180.84942 399.17367 173.03762 396.1875 165.59375 C 395.11581 162.92229 393.4246 161.65212 391.78125 161.53125 z M 118.09375 165.65625 C 117.08583 165.68543 116.06909 166.18898 115.15625 167.375 C 114.53424 168.18316 113.93452 169.00434 113.3125 169.8125 C 107.05909 176.32758 99.619766 181.20415 91.8125 185 C 86.231588 187.71341 91.275749 197.93503 96.21875 193.96875 C 99.444067 191.38075 102.80333 188.95416 106.28125 186.8125 C 106.12426 191.10107 106.69082 195.45371 107.46875 199.8125 C 109.75287 209.58518 112.80011 219.15615 115.59375 228.78125 C 118.44427 240.94966 120.74456 253.20835 124.3125 265.1875 C 129.00605 280.97248 132.34632 297.12297 135.59375 313.28125 C 138.83697 324.71059 139.69358 336.09219 138.75 347.6875 C 138.85376 348.57755 138.95874 349.45371 139.0625 350.34375 C 139.10187 350.68147 139.18269 351.00587 139.25 351.3125 C 135.82315 354.11276 132.23387 356.58733 127.8125 357.1875 C 115.82373 358.81485 123.43846 383.51941 133.5 376.28125 C 139.96364 371.63137 145.77998 366.65893 153.25 364.53125 C 154.49763 363.73682 156.09032 365.52761 156.28125 365.59375 C 169.73357 370.25281 172.55555 346.73772 158.875 343.375 C 155.83866 342.62866 153.3032 342.62023 150.84375 343.375 C 144.79149 334.00565 140.90557 323.95341 138.9375 312.5 C 134.90791 296.52822 130.9251 280.4794 128.6875 264.125 C 126.74788 251.73568 123.55834 239.63472 121.25 227.3125 C 119.43338 217.79268 116.92228 208.41132 115.53125 198.8125 C 115.00731 193.50752 114.41934 188.21245 113.3125 183 C 115.13561 182.17537 116.99845 181.47311 118.90625 180.875 C 119.80021 180.76722 120.69978 180.67028 121.59375 180.5625 C 129.13417 179.65337 123.53653 165.49866 118.09375 165.65625 z M 548.4375 173 C 539.20193 177.60194 536.87124 181.74162 537.21875 193.34375 C 536.78527 209.58321 538.48392 225.9736 537.3125 242.1875 C 537.25383 243.19547 537.16866 244.22804 537.0625 245.25 C 533.98806 236.95564 531.30167 228.51389 529.125 219.875 C 526.327 208.25179 523.7273 196.56286 520.375 185.09375 C 511.96147 174.8476 511.28538 186.54971 508.25 193.71875 C 507.19128 196.21933 511.261 198.25258 511.5 195.4375 C 511.79178 192.00005 517.60278 179.2777 513.90625 191.125 C 519.99471 199.57409 521.52297 211.0536 524.09375 221.21875 C 527.77864 232.73043 531.04988 244.20162 533.09375 256.15625 C 534.95505 263.08452 535.45956 270.05699 535.125 277.09375 C 537.46013 276.39053 539.24687 275.51586 540.625 274.53125 C 542.40138 275.08556 544.66829 275.26675 547.5625 274.96875 C 546.4459 272.23104 545.43573 269.45246 544.46875 266.65625 C 544.40084 260.29654 540.1837 251.92147 538.8125 242.21875 C 537.18256 225.7266 538.42475 210.35185 545.21875 196.21875 C 545.32792 195.77251 545.65738 195.19051 546.0625 194.5625 C 546.76099 196.25487 548.08171 198.48412 548.65625 200.03125 C 550.91264 208.55978 553.02887 217.12173 555.03125 225.71875 C 556.40038 234.19382 558.05261 242.64403 559.15625 251.15625 C 559.29655 256.02418 559.99083 260.13058 561.375 264.46875 C 565.60328 277.72061 579.95177 273.47082 577.625 259.71875 C 576.94135 255.67803 575.63859 251.90809 573.875 247.9375 C 571.45701 239.7005 569.61918 231.27961 567.5625 222.9375 C 565.84076 213.95468 564.60156 204.9397 563.21875 195.90625 C 561.21738 185.69318 557.78459 176.56989 548.4375 173 z M 550.90625 189.1875 C 551.17374 189.14608 550.60595 190.08405 548.46875 192.71875 C 548.15867 192.58634 547.90923 192.52229 547.65625 192.4375 C 549.05269 190.75983 550.58248 189.23763 550.90625 189.1875 z M 461.9375 190.8125 C 454.63073 191.04274 452.30215 199.67604 454.1875 209.21875 C 458.15865 221.75872 461.22686 234.5669 463.59375 247.53125 C 464.66758 259.56341 466.54127 271.26292 470.78125 282.5625 C 474.37737 297.88309 485.99933 300.60372 483.5 281.09375 C 485.31387 268.27182 486.84177 255.39315 488.34375 242.5 C 488.67956 244.17543 489.00583 245.8563 489.34375 247.53125 C 491.14636 255.04628 493.70971 262.42127 495.59375 269.875 C 497.13255 275.96302 499.48615 279.9023 503.40625 283.15625 C 505.84916 285.18403 518.50244 286.32228 515.8125 275.21875 C 514.80097 271.04337 513.75961 267.19622 511.65625 263.1875 C 508.47575 257.12606 507.64316 249.62485 505.21875 242.96875 C 502.52335 234.79786 500.60854 226.38735 499.59375 217.8125 C 497.74036 208.70348 497.32251 211.3615 493.625 208.0625 C 494.02037 205.69339 494.08365 203.33724 493.34375 201.03125 C 479.08976 191.00917 481.69294 211.02722 483.46875 220.90625 C 485.17994 227.1639 486.52529 233.51619 487.8125 239.875 C 486.21844 253.55704 484.64201 267.23682 482.71875 280.84375 C 481.22619 283.16604 480.66865 285.01195 480.5 286.21875 C 480.20614 284.90217 479.45216 282.7539 477.75 279.53125 C 473.91102 268.77313 470.79971 257.82406 468.78125 246.5 C 466.15811 233.9214 463.50866 221.23647 463.53125 208.375 C 463.53907 206.28255 463.09642 205.1061 462.625 204.46875 C 463.0149 204.5804 463.53905 204.70705 464.21875 204.78125 C 469.52116 205.62368 474.79863 206.43688 479.71875 203.90625 C 485.6257 200.86808 484.10368 192.1878 477.625 193.28125 C 473.59508 193.96141 470.31509 193.30919 466.5 191.59375 C 464.7993 191.01297 463.2906 190.76986 461.9375 190.8125 z M 373.84375 210.5 C 370.08429 210.70515 366.8667 213.60993 365.65625 219.6875 C 365.47846 230.42686 363.68788 241.05986 364.125 251.90625 C 363.61126 259.1095 363.07778 266.25356 362.90625 273.40625 C 358.70028 261.97503 355.60429 250.21828 354.84375 237.8125 C 353.3935 222.44299 344.20113 219.91053 340.625 233.8125 C 339.29293 238.99083 344.62593 241.97924 346.8125 237.25 C 346.93446 236.98622 347.01782 236.77723 347.125 236.53125 C 347.39619 237.59235 347.8719 238.76585 348.625 240 C 355.21927 253.83579 358.56249 269.0018 360.59375 284.25 C 361.62358 292.50815 363.02979 300.67729 363.34375 308.96875 C 364.61516 310.17256 365.74026 311.03863 366.75 311.65625 C 368.73692 317.47707 371.83146 318.96425 376.59375 304.9375 C 375.24228 302.39245 374.0029 299.77715 372.78125 297.15625 C 372.42944 295.54071 371.99985 293.9364 371.5 292.4375 C 367.23799 279.53978 365.77358 265.56624 365.5625 252.0625 C 365.7874 243.39003 368.2917 235.5988 371.65625 228.3125 C 371.91166 231.1029 373.25303 234.03838 374.125 236.6875 C 378.87628 251.12235 397.79388 241.12304 390.65625 227.9375 C 388.49411 223.94335 386.72033 219.63012 384.09375 215.96875 C 380.90923 212.25098 377.16092 210.31899 373.84375 210.5 z M 375.8125 221.4375 C 376.15498 221.25314 374.77002 223.27075 373.3125 224.875 C 373.55484 224.39739 373.78318 223.91094 374.03125 223.4375 C 375.11713 222.11764 375.6526 221.52358 375.8125 221.4375 z M 304.4375 229.28125 C 302.38996 229.33048 300.49299 230.86079 300.34375 234.15625 C 299.97398 242.32206 299.08339 250.41181 299.1875 258.625 C 298.49651 267.33347 299.79424 275.96373 300.84375 284.65625 C 301.471 291.64009 302.29997 298.56759 303.6875 305.4375 C 305.29095 311.49693 307.63973 316.66583 312.25 320.3125 C 318.51441 329.85472 326.47805 327.88 333.71875 322.125 C 338.84853 316.73786 338.77761 308.61446 339.65625 301.03125 C 339.7974 294.00351 339.08514 286.70126 337.90625 279.6875 C 336.03778 272.07041 334.5201 264.35718 332.5 256.78125 C 330.13861 248.9367 324.49715 243.90079 318.625 239.5625 C 313.53668 237.22414 316.28339 237.3182 310.75 241.84375 C 310.28792 242.22169 310.40665 242.04701 310.4375 242.71875 C 310.53594 244.8603 310.65162 246.98344 310.75 249.125 C 311.39658 249.67705 312.04091 250.2292 312.6875 250.78125 C 316.13635 253.74706 319.64038 256.68695 321.90625 261.03125 C 324.47473 267.54245 326.51186 274.05347 326.8125 281.1875 C 327.49641 287.04669 327.96049 292.61721 326.75 298.3125 C 326.15625 302.08341 325.42423 304.97359 323.15625 307.75 C 323.06046 308.03235 323.55832 308.3778 324.0625 308.625 C 323.74705 308.50401 323.63751 308.44081 323 308.21875 C 321.5875 305.49759 319.8247 303.08194 318.375 300.3125 C 316.10476 294.63137 314.18942 288.87587 312.96875 282.8125 C 311.36143 275.001 310.12538 267.05804 309.21875 259.15625 C 309.19437 251.35407 308.92878 243.54879 309.59375 235.8125 C 309.95573 231.6012 307.07005 229.21795 304.4375 229.28125 z M 273.09375 235.28125 C 269.18455 235.27165 266.22713 237.25951 264.84375 242.9375 C 262.23933 250.14425 259.17152 257.05119 257.84375 264.875 C 255.45003 273.95317 253.00704 283.05168 253.34375 292.84375 C 253.35466 295.28243 253.38122 297.73143 253.375 300.15625 C 251.74617 293.91477 250.2833 287.63176 249.15625 281.28125 C 247.17509 270.78387 243.73427 260.70109 242.28125 250.09375 C 241.37683 243.49161 231.82927 246.77949 234.625 252.75 C 239.02264 262.14185 239.89092 272.61437 241.96875 282.71875 C 244.56972 296.15978 249.11537 309.00996 252.90625 322.09375 C 256.19215 334.1875 259.40044 346.32592 262.40625 358.5 C 264.92296 368.31272 266.19094 378.31931 267.40625 388.34375 C 268.57642 395.38955 269.05268 402.50055 269.3125 409.59375 C 268.59241 414.76828 270.06979 419.50077 269.9375 424.65625 C 270.89272 425.86505 270.89586 427.42148 271.375 428.8125 C 275.60364 441.09017 286.70753 440.41729 287.15625 427.5 C 287.22042 425.65179 286.95408 423.78295 287.34375 421.96875 C 285.6067 417.47995 286.38058 413.05787 284.875 408.3125 C 283.44363 400.79455 281.07944 393.59082 279.5625 386.09375 C 277.01591 375.90894 274.20914 365.77358 270.96875 355.8125 C 268.70858 348.51847 266.35529 341.2632 263.9375 334.03125 C 264.30846 334.04912 264.69716 334.04097 265.09375 334.03125 C 266.23445 334.00329 267.35931 333.96547 268.5 333.9375 C 273.29933 331.11863 278.40077 328.75053 282.625 324.90625 C 286.99982 320.01389 291.0133 313.94471 290.65625 306.46875 C 290.3573 298.93322 289.9406 291.45237 288.40625 284 C 287.50473 275.51095 286.71364 267.00401 285.625 258.53125 C 284.71636 250.69748 284.47542 242.21906 278.96875 236.375 C 276.86136 235.70466 274.87066 235.28561 273.09375 235.28125 z M 272.5 242.125 C 272.90938 242.11883 273.31493 242.73576 274.21875 244.34375 C 273.63401 249.09933 274.67034 254.32953 275.03125 259.21875 C 275.19553 267.76803 276.31582 276.25818 277.125 284.78125 C 277.64525 291.33552 276.93223 297.65763 275.6875 303.90625 C 274.90256 307.44023 273.7183 308.98727 271.53125 311.53125 C 268.89897 313.70342 265.9216 314.12887 262.84375 314.6875 C 262.64508 314.84284 262.44874 315.0009 262.25 315.15625 C 260.84304 316.25616 259.67318 317.44186 258.71875 318.6875 C 257.33959 314.28578 255.99257 309.86232 254.75 305.40625 C 254.30961 301.27299 254.20596 297.12031 254.1875 292.90625 C 254.4502 283.38896 257.08999 274.45272 259.75 265.6875 C 261.5928 258.28578 264.81393 251.83276 268.625 245.75 C 271.19636 243.90101 271.8177 242.13528 272.5 242.125 z M 209.03125 242.375 C 206.15471 242.5823 203.42056 244.80733 201.5 250 C 201.62557 257.01542 202.06871 264.0351 201.0625 270.9375 C 200.75113 281.18624 200.41062 291.53056 201.375 301.8125 C 201.83196 304.71214 202.14995 307.64599 202.375 310.5625 C 201.68953 308.4875 201.01247 306.40132 200.28125 304.34375 C 197.22443 295.5239 194.43217 286.71033 192.96875 277.40625 C 191.52208 269.53629 191.15143 259.95957 184.15625 255.8125 C 176.92817 255.77088 173.05594 258.79056 172.15625 267.21875 C 171.49601 273.92978 168.90697 278.70509 167 284.875 C 166.34627 291.49213 166.87582 297.26248 168.59375 303.375 C 167.28257 299.67748 166.00826 295.94093 164.90625 292.15625 C 161.97793 282.35642 159.14004 272.54973 156.71875 262.59375 C 155.73702 258.5571 150.56758 260.20627 151.90625 264.125 C 155.23062 273.85644 158.89399 283.44642 162.28125 293.15625 C 165.78739 303.36537 167.95156 313.98628 169.65625 324.65625 C 171.1329 330.79132 171.69262 336.95495 171.71875 343.1875 C 175.06848 352.09879 171.04402 355.22607 180.09375 351.46875 C 187.56106 353.34084 182.88839 349.28956 182.34375 340.75 C 179.80932 334.91228 177.95 328.81959 175.9375 322.75 C 174.79484 319.82527 173.66451 316.89803 172.53125 313.96875 C 172.44762 312.15518 172.48174 310.33171 172.59375 308.5 C 173.58392 301.49062 174.48438 294.51262 176.0625 287.6875 C 176.95181 281.45019 177.57538 275.76529 179.71875 269.9375 C 180.34715 267.9399 181.26202 266.07206 182.1875 264.25 C 183.58078 269.00051 184.89815 273.89538 185.96875 278.84375 C 188.08185 288.2949 191.93825 297.11928 194.53125 306.4375 C 196.17947 314.80301 198.2158 323.07735 199.5625 331.5 C 196.4855 343.03048 212.54195 344.70944 211.3125 336.21875 C 212.01278 334.69926 211.71481 332.44588 209.46875 329.46875 C 207.38448 320.41124 207.31021 311.10123 208.1875 301.96875 C 207.83135 291.986 209.11757 282.55015 210.96875 273 C 211.29219 270.55456 211.62721 268.11525 212.0625 265.71875 C 213.96366 271.82225 215.437 278.09902 216.71875 284.375 C 218.37124 294.61229 221.22149 304.54224 222.875 314.78125 C 223.64307 320.82379 224.57741 326.8186 224.8125 332.875 C 225.08261 333.5676 225.35483 334.27617 225.625 334.96875 C 230.73565 348.07104 243.22625 345.61807 242.4375 331.53125 C 242.38613 330.61362 242.33262 329.69886 242.28125 328.78125 C 239.9011 323.04805 237.83546 317.17659 235.65625 311.34375 C 232.46199 301.68305 229.43226 291.99751 226.75 282.15625 C 224.88111 273.66482 223.78623 265.07882 222.65625 256.46875 C 220.58019 248.92503 214.52282 241.97924 209.03125 242.375 z "
       id="path6366" />
    <path
       style="opacity:1;fill:#000000;fill-opacity:1;fill-rule:nonzero;stroke:none;stroke-width:0.1;stroke-linecap:butt;stroke-miterlimit:4;stroke-dasharray:none;stroke-dashoffset:0;stroke-opacity:1"
       id="path2190"
       d="M 334.16173,369.02397 C 356.00516,366.2724 377.22583,359.55953 398.82691,354.91076 C 428.51907,348.15802 458.67209,344.60954 489.05642,343.45863 C 495.1964,341.69265 534.78703,336.98976 515.86715,351.20354 C 497.66413,350.43616 480.65578,354.63281 463.60848,360.65772 C 455.82477,364.3589 448.36629,368.77685 441.68657,374.22654 C 438.72269,376.64463 435.47617,370.60135 439.12728,369.46067 L 439.12728,369.46067 C 447.42995,366.86673 455.19553,362.94862 463.38866,360.03561 C 479.16194,354.46362 496.8758,352.67282 510.49286,342.36033 C 522.9816,353.71918 499.32357,340.05207 489.08139,344.11796 C 458.73529,345.26686 428.62046,348.81124 398.96572,355.5558 C 377.96806,360.07449 355.08485,362.88979 336.83902,374.72904 C 333.10081,377.15467 329.74045,369.58091 334.16173,369.02397 z " />
  </g>
</svg>
